<svg width="54" height="68" viewBox="0 0 54 68" fill="none" xmlns="http://www.w3.org/2000/svg">
<path d="M53.882 67.9168V30.4637C53.882 26.2137 52.7556 22.3474 50.5028 18.8647C48.2501 15.3821 45.2267 12.7849 41.4326 11.0731L18.3124 0.536621L15.5557 5.14079L39.2095 15.8543C42.0551 17.212 44.3226 19.1894 46.0122 21.7866C47.7017 24.3838 48.5465 27.2762 48.5465 30.4637V67.9168H53.882ZM24.9817 67.9168H30.6728C29.8428 65.7918 29.1611 63.5931 28.6275 61.3205C28.094 59.0479 27.7087 56.7753 27.4715 54.5028C27.2344 52.2302 27.1307 49.9576 27.1603 47.6851C27.1899 45.4125 27.3233 43.2137 27.5605 41.0887C27.7383 39.672 27.3974 38.4029 26.5378 37.2814C25.6782 36.1599 24.537 35.4516 23.1143 35.1564C21.3951 34.8022 19.661 34.3448 17.9122 33.784C16.1634 33.2233 14.4294 32.5592 12.7102 31.7918C10.991 31.0245 9.31622 30.1538 7.68595 29.1799C6.05568 28.2059 4.49951 27.0991 3.01744 25.8595L0.171875 30.4637C4.08453 33.5922 8.08611 35.8943 12.1766 37.37C16.2671 38.8457 19.6462 39.8491 22.3139 40.3804C22.1361 41.797 22.0027 43.5088 21.9138 45.5158C21.8249 47.5227 21.8397 49.7215 21.9582 52.1121C22.0768 54.5028 22.3732 57.041 22.8475 59.7267C23.3217 62.4125 24.0331 65.1425 24.9817 67.9168ZM37.6089 35.3335C36.8975 35.3335 36.275 35.0679 35.7415 34.5366C35.2079 34.0054 34.9411 33.3856 34.9411 32.6772C34.9411 32.3231 35.1486 31.7623 35.5636 30.995L20.9801 24.2658C20.9208 24.9151 20.6392 25.4906 20.1353 25.9924C19.6314 26.4941 19.0238 26.745 18.3124 26.745C17.601 26.745 16.9785 26.4793 16.445 25.9481C15.9114 25.4168 15.6446 24.797 15.6446 24.0887C15.6446 23.3213 15.9411 22.6868 16.5339 22.1851C17.1267 21.6833 17.7788 21.4325 18.4902 21.4325C18.1938 21.1373 17.9715 20.8274 17.8233 20.5028C17.6751 20.1781 17.601 19.8387 17.601 19.4845C17.601 18.7172 17.8677 18.0826 18.4013 17.5809C18.9348 17.0792 19.5573 16.8283 20.2687 16.8283C21.0394 16.8283 21.6767 17.0792 22.1806 17.5809C22.6845 18.0826 22.9364 18.7172 22.9364 19.4845C22.9364 19.7797 22.8919 20.0453 22.803 20.2814C22.7141 20.5175 22.6104 20.7536 22.4918 20.9897L36.9864 27.7189C37.0457 27.0696 37.3273 26.5088 37.8312 26.0366C38.3351 25.5644 38.9131 25.3283 39.5652 25.3283C40.3359 25.3283 40.9732 25.5792 41.4771 26.0809C41.981 26.5826 42.2329 27.2172 42.2329 27.9845C42.2329 28.6929 41.9365 29.2979 41.3437 29.7996C40.7509 30.3014 40.0987 30.5522 39.3873 30.5522C39.6838 30.8474 39.9061 31.1573 40.0543 31.4819C40.2025 31.8066 40.2766 32.205 40.2766 32.6772C40.2766 33.3856 40.0246 34.0054 39.5207 34.5366C39.0168 35.0679 38.3795 35.3335 37.6089 35.3335Z" fill="url(#paint0_linear_731_903)"/>
<defs>
<linearGradient id="paint0_linear_731_903" x1="0.17199" y1="0.119169" x2="58.9196" y2="99.0509" gradientUnits="userSpaceOnUse">
<stop stop-color="#6FDEFC"/>
<stop offset="1" stop-color="#458DFC"/>
</linearGradient>
</defs>
</svg>
