<svg width="77" height="85" viewBox="0 0 77 85" fill="none" xmlns="http://www.w3.org/2000/svg">
<path d="M25.5809 6.07867V0H51.0236V6.07867H25.5809ZM35.1219 51.3647H41.4826V28.0632H35.1219V51.3647ZM38.3023 85C33.0724 85 28.1428 84.0375 23.5137 82.1126C18.8845 80.1877 14.8384 77.5705 11.3754 74.261C7.91235 70.9515 5.17372 67.0848 3.15951 62.6609C1.14529 58.237 0.138184 53.526 0.138184 48.528C0.138184 43.53 1.14529 38.819 3.15951 34.3951C5.17372 29.9712 7.91235 26.1045 11.3754 22.795C14.8384 19.4855 18.8845 16.8683 23.5137 14.9434C28.1428 13.0185 33.0724 12.056 38.3023 12.056C43.0374 12.056 47.4899 12.8159 51.6597 14.3355C55.8295 15.8552 59.5399 17.9658 62.7909 20.6675L68.1975 15.5006L72.6499 19.7557L67.2434 24.9225C69.7876 27.6242 71.9609 30.8999 73.7631 34.7497C75.5652 38.5995 76.4663 43.1923 76.4663 48.528C76.4663 53.526 75.4592 58.237 73.445 62.6609C71.4308 67.0848 68.6922 70.9515 65.2291 74.261C61.7661 77.5705 57.72 80.1877 53.0908 82.1126C48.4617 84.0375 43.5322 85 38.3023 85ZM38.3023 78.9213C47.1365 78.9213 54.6457 75.9664 60.8297 70.0566C67.0137 64.1468 70.1057 56.9706 70.1057 48.528C70.1057 40.0854 67.0137 32.9092 60.8297 26.9994C54.6457 21.0896 47.1365 18.1347 38.3023 18.1347C29.468 18.1347 21.9588 21.0896 15.7749 26.9994C9.59086 32.9092 6.49886 40.0854 6.49886 48.528C6.49886 56.9706 9.59086 64.1468 15.7749 70.0566C21.9588 75.9664 29.468 78.9213 38.3023 78.9213Z" fill="url(#paint0_linear_731_885)"/>
<defs>
<linearGradient id="paint0_linear_731_885" x1="0.138347" y1="-0.526615" x2="69.7734" y2="131.577" gradientUnits="userSpaceOnUse">
<stop stop-color="#6FDEFC"/>
<stop offset="1" stop-color="#458DFC"/>
</linearGradient>
</defs>
</svg>
