<svg width="15" height="28" viewBox="0 0 15 28" fill="none" xmlns="http://www.w3.org/2000/svg">
<path d="M7.33333 27.3327C5.31111 27.3327 3.58333 26.6382 2.15 25.2493C0.716667 23.8605 0 22.1549 0 20.1327V5.79935C0 4.37713 0.505555 3.16602 1.51667 2.16602C2.52778 1.16602 3.74444 0.666016 5.16667 0.666016C6.61111 0.666016 7.83333 1.16602 8.83333 2.16602C9.83333 3.16602 10.3333 4.38824 10.3333 5.83268V18.966C10.3333 19.8105 10.0444 20.5271 9.46667 21.116C8.88889 21.7049 8.17778 21.9993 7.33333 21.9993C6.48889 21.9993 5.77778 21.6827 5.2 21.0493C4.62222 20.416 4.33333 19.666 4.33333 18.7993V5.73268H5.66667V18.8993C5.66667 19.3882 5.82778 19.8049 6.15 20.1493C6.47222 20.4938 6.86667 20.666 7.33333 20.666C7.8 20.666 8.19444 20.4993 8.51667 20.166C8.83889 19.8327 9 19.4327 9 18.966V5.79935C9 4.73268 8.62778 3.83268 7.88333 3.09935C7.13889 2.36602 6.23333 1.99935 5.16667 1.99935C4.1 1.99935 3.19444 2.36602 2.45 3.09935C1.70556 3.83268 1.33333 4.73268 1.33333 5.79935V20.1993C1.33333 21.8216 1.92222 23.1938 3.1 24.316C4.27778 25.4382 5.68889 25.9993 7.33333 25.9993C9 25.9993 10.4167 25.4327 11.5833 24.2993C12.75 23.166 13.3333 21.7771 13.3333 20.1327V5.73268H14.6667V20.0993C14.6667 22.1216 13.95 23.8327 12.5167 25.2327C11.0833 26.6327 9.35556 27.3327 7.33333 27.3327Z" fill="#AEA7A7"/>
</svg>
