<svg width="228" height="70" viewBox="0 0 228 70" fill="none" xmlns="http://www.w3.org/2000/svg">
<path d="M199.689 0C184.199 0 171.643 15.5914 171.643 34.8214C171.643 54.0536 184.199 69.6429 199.689 69.6429C215.179 69.6429 227.735 54.0536 227.735 34.8214C227.735 15.5914 215.179 0 199.689 0ZM217.868 57.3925C215.506 60.3254 212.757 62.6271 209.694 64.234C206.528 65.898 203.16 66.7419 199.689 66.7419C196.217 66.7419 192.85 65.8982 189.682 64.234C186.621 62.6273 183.872 60.3255 181.509 57.3925C179.147 54.4595 177.293 51.0463 175.999 47.2461C174.659 43.3121 173.979 39.1317 173.979 34.8214C173.979 30.5112 174.659 26.3307 175.999 22.3989C177.293 18.5967 179.147 15.1834 181.509 12.2505C181.819 11.8658 182.136 11.4939 182.46 11.1305C183.233 11.7532 184.681 12.9923 186.116 14.633C187.953 16.735 190.13 19.9251 190.069 23.1811C190.019 25.8229 189.081 26.4499 187.66 27.402C185.988 28.52 183.699 30.0523 184.011 35.5187C184.147 37.9267 185.159 40.0158 187.02 41.731C188.389 42.9956 190.231 44.0582 192.496 44.8893C192.85 45.0189 193.203 45.138 193.552 45.2485C193.494 45.4674 193.441 45.6736 193.393 45.8564C193.366 45.969 193.333 46.0923 193.304 46.2029C193.169 46.2561 193.109 46.2603 193.093 46.2603C193.056 46.2518 192.924 46.1753 192.826 46.12C192.433 45.8948 191.835 45.5525 190.765 45.4081C190.659 45.3953 190.55 45.3869 190.44 45.3869C189.254 45.3869 187.996 46.2328 186.702 47.8969C185.834 49.0169 185.243 50.1306 185.217 50.1774L184.718 51.1253L188.591 56.3218L190.854 55.104C192.91 57.8074 195.464 59.2292 198.292 59.2292C198.294 59.2292 198.294 59.2292 198.294 59.2292C200.79 59.2292 203.399 58.1304 205.836 56.0519C208.085 54.1328 210.033 51.4824 211.323 48.5899C213.2 44.3711 213.507 40.0844 212.218 36.6179C215.92 34.4097 218.485 29.7084 218.485 24.2761C218.485 16.7312 213.541 10.5954 207.466 10.5954C201.389 10.5954 196.445 16.7312 196.445 24.2761C196.445 28.0315 197.673 31.4406 199.653 33.9144C199.561 33.9272 199.47 33.9357 199.379 33.9357C199.323 33.9357 199.268 33.9335 199.211 33.9293L194.198 31.5149L191.931 36.3819L195.644 40.8004C195.192 41.3679 194.829 41.9693 194.537 42.5623C194.071 42.4241 193.598 42.2668 193.124 42.0926C190.144 40.9938 186.548 38.9259 186.34 35.3149C186.137 31.7167 187.184 31.0175 188.769 29.9549C190.269 28.9517 192.325 27.5767 192.405 23.2494C192.525 16.882 186.948 11.405 184.35 9.20306C185.994 7.6788 187.778 6.41 189.682 5.40902C192.85 3.74698 196.217 2.90324 199.689 2.90324C203.16 2.90324 206.527 3.74698 209.694 5.40902C212.757 7.01788 215.506 9.31963 217.868 12.2505C220.229 15.1834 222.084 18.5967 223.378 22.3989C224.719 26.3307 225.398 30.5113 225.398 34.8214C225.398 39.1315 224.719 43.3121 223.378 47.2461C222.084 51.0462 220.229 54.4595 217.868 57.3925ZM207.465 35.0552C202.678 35.0552 198.783 30.2181 198.783 24.2756C198.783 18.331 202.678 13.4959 207.465 13.4959C212.252 13.4959 216.146 18.331 216.146 24.2756C216.146 30.2179 212.252 35.0552 207.465 35.0552ZM201.858 36.0478C203.501 37.2592 205.418 37.9563 207.466 37.9563C208.337 37.9563 209.186 37.8287 209.999 37.5907C211.081 40.2453 210.828 43.6989 209.277 47.1844C206.918 52.4828 202.299 56.3276 198.292 56.3276C195.877 56.3276 193.783 55.0162 192.073 52.4298L191.513 51.5839L189.182 52.8421L187.708 50.8634C188.516 49.6136 189.663 48.2896 190.44 48.2896C190.466 48.2896 190.49 48.2896 190.514 48.2938C191.204 48.3852 191.53 48.5743 191.847 48.755C192.162 48.9357 192.556 49.1609 193.095 49.1609C193.532 49.1609 193.99 49.0185 194.583 48.6954C195.204 48.3596 195.387 47.6435 195.62 46.738C195.959 45.416 196.472 43.4182 198.054 42.0622L199.234 41.0527L194.874 35.8627L195.219 35.1167L198.646 36.7682L198.787 36.7894C198.982 36.8212 199.181 36.8382 199.379 36.8382C200.247 36.8383 201.082 36.5387 201.858 36.0478Z" fill="#0EB0BA"/>
<path d="M12.0426 55.4466C10.8544 55.4466 9.6662 55.2971 8.478 54.998C5.363 54.1607 2.88224 52.516 1.03572 50.064C0.505852 49.3064 0.240916 48.4691 0.240916 47.5521C0.240916 47.4923 0.252959 47.1982 0.277044 46.6699C0.301129 46.1416 0.622263 45.5286 1.24045 44.8308C1.85863 44.1331 2.53703 43.7842 3.27564 43.7842C3.32381 43.7842 3.56065 43.7942 3.98615 43.8141C4.41165 43.8341 4.92144 44.2328 5.51551 45.0103C6.54314 46.326 7.96416 47.2032 9.77856 47.6418C10.5332 47.8411 11.2879 47.9408 12.0426 47.9408C13.0541 47.9408 14.0416 47.7614 15.005 47.4025C16.5465 46.7048 17.4617 45.7678 17.7507 44.5916C17.9113 43.9337 17.9916 43.3656 17.9916 42.8871C17.9916 41.8903 17.5861 41.0481 16.7753 40.3603C15.9644 39.6725 14.1861 38.91 11.4404 38.0728C10.1237 37.6342 8.81513 37.1458 7.51453 36.6075C2.50484 34.5143 0 30.6966 0 25.1545C0 24.696 0.0160567 24.2175 0.0481701 23.7191C0.401417 20.2703 1.66588 17.5441 3.84156 15.5406C6.01725 13.5371 8.82317 12.5353 12.2593 12.5353C13.1264 12.5951 13.8409 12.9838 14.4029 13.7015C14.9649 14.4192 15.2459 15.3063 15.2459 16.3629C15.1977 17.4395 14.8846 18.3266 14.3065 19.0243C13.7285 19.7221 13.03 20.071 12.2112 20.0709C9.94718 20.0709 8.24517 20.6989 7.10514 21.9549C6.38259 22.7323 6.02131 23.8487 6.02131 25.304C6.02131 26.4802 6.45083 27.4571 7.30986 28.2346C8.1689 29.012 10.0676 29.8593 13.0059 30.7764C14.2583 31.1552 15.5108 31.6137 16.7632 32.152C21.6123 34.1655 24.0369 37.7738 24.0369 42.977C24.0369 43.3956 24.0208 43.8242 23.9887 44.2628C23.4749 49.2666 21.1065 52.6956 16.8836 54.5496C15.3422 55.1476 13.7285 55.4467 12.0425 55.4467L12.0426 55.4466ZM20.6648 24.1381C19.8299 24.1381 19.1193 23.7693 18.5333 23.0317C17.9472 22.2941 17.6542 21.4069 17.6542 20.3703C17.6542 19.3336 17.9472 18.4464 18.5333 17.7088C19.1193 16.9712 19.8298 16.6024 20.6648 16.6024C21.4997 16.6024 22.2143 16.9712 22.8084 17.7088C23.4025 18.4465 23.6996 19.3336 23.6995 20.3703C23.6995 21.4069 23.4025 22.2941 22.8084 23.0317C22.2143 23.7693 21.4998 24.1381 20.6648 24.1381L20.6648 24.1381ZM40.5832 55.4466C39.7483 55.4466 39.0338 55.0827 38.4397 54.3551C37.8456 53.6274 37.5485 52.7453 37.5485 51.7087V16.3337C37.5485 15.2971 37.8456 14.41 38.4397 13.6723C39.0338 12.9347 39.7483 12.5659 40.5833 12.5659H50.4822C51.3171 12.5659 52.0316 12.9347 52.6257 13.6723C53.2198 14.41 53.5169 15.2971 53.5169 16.3338C53.5169 17.3704 53.2198 18.2526 52.6257 18.9802C52.0316 19.7078 51.3171 20.0716 50.4821 20.0717H43.6179V51.7093C43.6179 52.7459 43.3209 53.6281 42.7268 54.3557C42.1327 55.0834 41.4181 55.4472 40.5832 55.4472L40.5832 55.4466ZM30.6841 20.0716C29.8492 20.0716 29.1346 19.7078 28.5405 18.9802C27.9464 18.2525 27.6494 17.3704 27.6494 16.3337C27.6494 15.2971 27.9464 14.41 28.5405 13.6723C29.1346 12.9347 29.8492 12.5659 30.6841 12.5659C31.5191 12.5659 32.2336 12.9347 32.8277 13.6723C33.4218 14.4099 33.7189 15.297 33.7189 16.3337C33.7189 17.3704 33.4218 18.2526 32.8277 18.9802C32.2336 19.7077 31.5191 20.0716 30.6841 20.0716L30.6841 20.0716ZM78.8304 55.4466H60.6463C59.8113 55.4466 59.0968 55.0827 58.5027 54.3551C57.9086 53.6274 57.6116 52.7453 57.6116 51.7087C57.6116 50.6521 57.9086 49.76 58.5027 49.0323C59.0968 48.3047 59.8113 47.9409 60.6463 47.9409H78.8304C79.6653 47.9409 80.3799 48.3047 80.974 49.0323C81.5681 49.76 81.8651 50.6521 81.8651 51.7086C81.8651 52.7453 81.5681 53.6274 80.974 54.3551C80.3799 55.0827 79.6653 55.4465 78.8304 55.4465V55.4466ZM78.8304 20.0716H60.6463C59.8113 20.0716 59.0968 19.7078 58.5027 18.9802C57.9086 18.2525 57.6116 17.3704 57.6116 16.3337C57.6116 15.2971 57.9086 14.41 58.5027 13.6723C59.0968 12.9347 59.8114 12.5659 60.6463 12.5659H78.8304C79.6653 12.5659 80.3799 12.9347 80.974 13.6723C81.5681 14.4099 81.8651 15.2971 81.8651 16.3337C81.8651 17.3704 81.5681 18.2525 80.974 18.9802C80.3799 19.7078 79.6653 20.0716 78.8304 20.0716V20.0716ZM78.8304 37.7736H60.6463C59.8113 37.7736 59.0968 37.4048 58.5027 36.6672C57.9086 35.9296 57.6116 35.0425 57.6116 34.0058C57.6116 32.9691 57.9086 32.082 58.5027 31.3444C59.0968 30.6068 59.8114 30.2379 60.6463 30.2379H78.8304C79.6653 30.2379 80.3799 30.6067 80.974 31.3444C81.5681 32.082 81.8651 32.9691 81.8651 34.0058C81.8651 35.0425 81.5681 35.9296 80.974 36.6672C80.3799 37.4048 79.6653 37.7736 78.8304 37.7736ZM89.9574 55.4466C90.7924 55.4466 91.5069 55.0827 92.101 54.3551C92.6951 53.6274 92.9921 52.7453 92.9921 51.7087V28.204L100.892 42.139C101.566 43.2155 102.401 43.7538 103.397 43.7538C104.376 43.7538 105.203 43.2155 105.878 42.139L119.293 18.5149C119.662 17.8171 119.847 17.0994 119.847 16.3618C119.847 16.1226 119.807 15.704 119.727 15.1059C119.646 14.5078 119.261 13.8898 118.571 13.2519C118.009 12.7934 117.423 12.5642 116.812 12.5642C116.652 12.5642 116.327 12.614 115.837 12.7137C115.347 12.8134 114.845 13.2918 114.332 14.149L103.397 33.4372L92.4384 14.149C91.764 13.0925 90.9451 12.5642 89.9817 12.5642C88.938 12.5642 88.1111 13.0825 87.5009 14.1191C87.1156 14.777 86.9229 15.5047 86.9229 16.3021V51.7076C86.9229 52.7443 87.2199 53.6264 87.814 54.3541C88.4081 55.0817 89.1227 55.4456 89.9576 55.4456L89.9574 55.4466ZM154.023 55.4466C153.445 55.4466 152.912 55.2572 152.422 54.8784C151.932 54.4996 151.551 53.9614 151.278 53.2636L140.849 25.2745L134.153 43.2459C133.559 44.7012 132.644 45.4289 131.408 45.4289C130.99 45.4289 130.573 45.3192 130.155 45.0999C128.967 44.3823 128.373 43.236 128.373 41.6611C128.373 41.1427 128.469 40.6144 128.662 40.0762L138.103 14.748C138.746 13.2728 139.661 12.5352 140.849 12.5352C142.021 12.5352 142.936 13.2728 143.595 14.748L156.77 50.0939C156.962 50.6321 157.059 51.1704 157.059 51.7086C157.059 53.2636 156.465 54.39 155.277 55.0877C154.859 55.3269 154.442 55.4466 154.024 55.4466L154.023 55.4466ZM127.699 55.3868C126.864 55.3868 126.149 55.018 125.555 54.2803C124.961 53.5427 124.664 52.6556 124.664 51.6189C124.664 50.5822 124.961 49.6951 125.555 48.9575C126.149 48.2199 126.864 47.8511 127.699 47.8511C128.534 47.8511 129.248 48.2199 129.842 48.9575C130.436 49.6951 130.733 50.5823 130.733 51.6189C130.733 52.6556 130.436 53.5427 129.842 54.2803C129.248 55.018 128.534 55.3868 127.699 55.3868L127.699 55.3868Z" fill="#0EB0BA"/>
</svg>
