<svg width="76" height="74" viewBox="0 0 76 74" fill="none" xmlns="http://www.w3.org/2000/svg">
<path d="M54.3015 38.4479C51.5152 35.9688 48.8623 33.5486 46.3428 31.1875C43.8233 28.8264 41.615 26.5243 39.718 24.2813C37.8209 22.0382 36.3092 19.8689 35.1828 17.7734C34.0565 15.678 33.4933 13.6563 33.4933 11.7083C33.4933 8.63889 34.5307 6.07118 36.6056 4.00521C38.6805 1.93924 41.2593 0.90625 44.342 0.90625C46.1205 0.90625 47.8842 1.39323 49.633 2.36719C51.3818 3.34115 52.938 4.65451 54.3015 6.30729C55.665 4.65451 57.2212 3.34115 58.97 2.36719C60.7188 1.39323 62.4825 0.90625 64.261 0.90625C67.3437 0.90625 69.9225 1.93924 71.9974 4.00521C74.0723 6.07118 75.1097 8.63889 75.1097 11.7083C75.1097 13.6563 74.5465 15.678 73.4202 17.7734C72.2938 19.8689 70.7821 22.0382 68.885 24.2813C66.988 26.5243 64.7797 28.8264 62.2602 31.1875C59.7407 33.5486 57.0878 35.9688 54.3015 38.4479ZM54.3015 31.099C58.2142 27.5573 61.7711 24.0451 64.9724 20.5625C68.1736 17.0799 69.7743 14.1285 69.7743 11.7083C69.7743 10.1146 69.2555 8.80122 68.2181 7.76823C67.1807 6.73524 65.8616 6.21875 64.261 6.21875C63.2532 6.21875 62.2602 6.45486 61.282 6.92708C60.3039 7.39931 59.3109 8.28472 58.3031 9.58333L54.3015 14.4531L50.2999 9.58333C49.2921 8.28472 48.2991 7.39931 47.321 6.92708C46.3428 6.45486 45.3498 6.21875 44.342 6.21875C42.7414 6.21875 41.4223 6.73524 40.3849 7.76823C39.3475 8.80122 38.8287 10.1146 38.8287 11.7083C38.8287 14.1285 40.4294 17.0799 43.6306 20.5625C46.8319 24.0451 50.3888 27.5573 54.3015 31.099ZM47.1876 73.5104L19.5322 65.6302V70.6771H0.413574V35.7917H27.8911L50.5667 44.2917C52.1673 44.8819 53.516 45.8411 54.6127 47.1693C55.7095 48.4974 56.2578 50.401 56.2578 52.8802H66.3952C68.885 52.8802 70.9599 53.7656 72.6198 55.5365C74.2798 57.3073 75.1097 59.6979 75.1097 62.7083V65.0104L47.1876 73.5104ZM5.74901 65.3646H14.1079V41.1042H5.74901V65.3646ZM46.8319 68.0208L69.5964 61.1146C69.2407 59.9931 68.7961 59.2257 68.2626 58.8125C67.729 58.3993 67.1066 58.1927 66.3952 58.1927H47.9879C46.2094 58.1927 44.5643 58.0747 43.0526 57.8385C41.5409 57.6024 40.1033 57.2778 38.7398 56.8646L31.537 54.651L33.4933 49.5156L39.9847 51.6406C41.4668 52.1129 42.8748 52.4375 44.2086 52.6146C45.5425 52.7917 47.6618 52.8802 50.5667 52.8802C50.5667 52.1719 50.4333 51.4783 50.1665 50.7995C49.8998 50.1207 49.4403 49.6337 48.7882 49.3385L27.0018 41.1042H19.5322V60.0521L46.8319 68.0208Z" fill="url(#paint0_linear_731_901)"/>
<defs>
<linearGradient id="paint0_linear_731_901" x1="0.413734" y1="0.456433" x2="55.165" y2="119.458" gradientUnits="userSpaceOnUse">
<stop stop-color="#6FDEFC"/>
<stop offset="1" stop-color="#458DFC"/>
</linearGradient>
</defs>
</svg>
