<svg width="51" height="50" viewBox="0 0 51 50" fill="none" xmlns="http://www.w3.org/2000/svg">
<g clip-path="url(#clip0_523_3561)">
<path d="M4.28351 43.0041H12.1V24.0213L0.933594 15.6465V39.6542C0.933594 41.505 2.43269 43.0041 4.28351 43.0041Z" fill="#4285F4"/>
<path d="M38.8984 43.0041H46.7149C48.5658 43.0041 50.0648 41.505 50.0648 39.6542V15.6465L38.8984 24.0213V43.0041Z" fill="#34A853"/>
<path d="M38.8984 9.50348V24.0198L50.0648 15.6449V11.1784C50.0648 7.03849 45.3386 4.67401 42.0251 7.15854L38.8984 9.50348Z" fill="#FBBC04"/>
<path fill-rule="evenodd" clip-rule="evenodd" d="M12.0996 24.0202V9.50391L25.4993 19.5537L38.8989 9.50391V24.0202L25.4993 34.07L12.0996 24.0202Z" fill="#EA4335"/>
<path d="M0.933594 11.1784V15.6449L12.1 24.0198V9.50348L8.97339 7.15854C5.65976 4.67401 0.933594 7.03849 0.933594 11.1784Z" fill="#C5221F"/>
</g>
<defs>
<clipPath id="clip0_523_3561">
<rect width="49.1321" height="49.1321" fill="white" transform="translate(0.933594 0.00390625)"/>
</clipPath>
</defs>
</svg>
