<svg width="50" height="50" viewBox="0 0 50 50" fill="none" xmlns="http://www.w3.org/2000/svg">
<g clip-path="url(#clip0_523_3570)">
<path d="M0.867188 24.566C0.867188 10.9986 11.8658 0 25.4332 0C39.0006 0 49.9993 10.9986 49.9993 24.566C49.9993 38.1335 39.0006 49.1321 25.4332 49.1321C11.8658 49.1321 0.867188 38.1335 0.867188 24.566Z" fill="#55ACEE"/>
<path d="M24.6977 19.9682L24.7492 20.8183L23.89 20.7142C20.7627 20.3152 18.0305 18.962 15.7107 16.6894L14.5767 15.5619L14.2845 16.3945C13.6659 18.2508 14.0611 20.2111 15.3499 21.5295C16.0372 22.2581 15.8825 22.3622 14.6969 21.9286C14.2845 21.7898 13.9236 21.6857 13.8893 21.7377C13.769 21.8592 14.1814 23.4377 14.5079 24.0623C14.9547 24.9297 15.8653 25.7797 16.862 26.2828L17.704 26.6818L16.7073 26.6992C15.7451 26.6992 15.7107 26.7165 15.8139 27.0808C16.1575 28.2084 17.515 29.4054 19.0271 29.9258L20.0925 30.2901L19.1646 30.8452C17.7899 31.6433 16.1747 32.0943 14.5595 32.129C13.7861 32.1464 13.1504 32.2157 13.1504 32.2678C13.1504 32.4413 15.2468 33.4128 16.4668 33.7944C20.1268 34.9219 24.4743 34.4363 27.7391 32.5107C30.0589 31.1402 32.3786 28.4165 33.4612 25.7797C34.0454 24.3745 34.6297 21.8071 34.6297 20.5754C34.6297 19.7774 34.6812 19.6733 35.6435 18.7192C36.2105 18.164 36.7432 17.5568 36.8464 17.3834C37.0181 17.0538 37.001 17.0538 36.1247 17.3487C34.6641 17.8691 34.4578 17.7997 35.1796 17.0191C35.7122 16.4639 36.348 15.4578 36.348 15.1629C36.348 15.1109 36.0903 15.1976 35.7981 15.3537C35.4889 15.5272 34.8016 15.7874 34.286 15.9436L33.3581 16.2384L32.5161 15.666C32.0522 15.3537 31.3992 15.0068 31.0555 14.9027C30.1792 14.6598 28.8389 14.6945 28.0485 14.9721C25.9005 15.7528 24.543 17.765 24.6977 19.9682Z" fill="white"/>
</g>
<defs>
<clipPath id="clip0_523_3570">
<rect width="49.1321" height="49.1321" fill="white" transform="translate(0.867188)"/>
</clipPath>
</defs>
</svg>
