<svg width="82" height="59" viewBox="0 0 82 59" fill="none" xmlns="http://www.w3.org/2000/svg">
<path d="M46.9724 34.9375C43.9036 34.9375 41.2952 33.8802 39.1471 31.7656C36.999 29.651 35.9249 27.0833 35.9249 24.0625C35.9249 21.0417 36.999 18.474 39.1471 16.3594C41.2952 14.2448 43.9036 13.1875 46.9724 13.1875C50.0411 13.1875 52.6496 14.2448 54.7977 16.3594C56.9458 18.474 58.0199 21.0417 58.0199 24.0625C58.0199 27.0833 56.9458 29.651 54.7977 31.7656C52.6496 33.8802 50.0411 34.9375 46.9724 34.9375ZM17.5124 47.625C15.978 47.625 14.6738 47.0964 13.5998 46.0391C12.5257 44.9818 11.9887 43.6979 11.9887 42.1875V5.9375C11.9887 4.42708 12.5257 3.14323 13.5998 2.08594C14.6738 1.02865 15.978 0.5 17.5124 0.5H76.4324C77.9668 0.5 79.271 1.02865 80.345 2.08594C81.4191 3.14323 81.9561 4.42708 81.9561 5.9375V42.1875C81.9561 43.6979 81.4191 44.9818 80.345 46.0391C79.271 47.0964 77.9668 47.625 76.4324 47.625H17.5124ZM26.7187 42.1875H67.2261C67.2261 39.65 68.1161 37.5052 69.896 35.7531C71.6758 34.001 73.8546 33.125 76.4324 33.125V15C73.8546 15 71.6758 14.124 69.896 12.3719C68.1161 10.6198 67.2261 8.475 67.2261 5.9375H26.7187C26.7187 8.475 25.8287 10.6198 24.0488 12.3719C22.269 14.124 20.0902 15 17.5124 15V33.125C20.0902 33.125 22.269 34.001 24.0488 35.7531C25.8287 37.5052 26.7187 39.65 26.7187 42.1875ZM70.9086 58.5H6.46491C4.93054 58.5 3.62632 57.9714 2.55226 56.9141C1.47819 55.8568 0.941162 54.5729 0.941162 53.0625V11.375H6.46491V53.0625H70.9086V58.5ZM17.5124 42.1875V5.9375V42.1875Z" fill="url(#paint0_linear_731_892)"/>
<defs>
<linearGradient id="paint0_linear_731_892" x1="0.941336" y1="0.140663" x2="35.9549" y2="103.464" gradientUnits="userSpaceOnUse">
<stop stop-color="#6FDEFC"/>
<stop offset="1" stop-color="#458DFC"/>
</linearGradient>
</defs>
</svg>
