<svg width="77" height="74" viewBox="0 0 77 74" fill="none" xmlns="http://www.w3.org/2000/svg">
<path d="M59.8646 14.3584C58.0233 14.3584 56.4429 13.7015 55.1233 12.3876C53.8038 11.0737 53.144 9.5001 53.144 7.66676C53.144 5.83343 53.8038 4.25982 55.1233 2.94593C56.4429 1.63204 58.0233 0.975098 59.8646 0.975098C61.7058 0.975098 63.2862 1.63204 64.6058 2.94593C65.9253 4.25982 66.5851 5.83343 66.5851 7.66676C66.5851 9.5001 65.9253 11.0737 64.6058 12.3876C63.2862 13.7015 61.7058 14.3584 59.8646 14.3584ZM54.3408 73.6668V42.8668C54.3408 41.0334 53.8805 39.3834 52.9599 37.9168C52.0392 36.4501 50.689 35.3807 48.9091 34.7084L52.6837 23.7084C53.1747 22.1807 54.08 20.9584 55.3995 20.0418C56.7191 19.1251 58.2074 18.6668 59.8646 18.6668C61.5217 18.6668 63.01 19.1251 64.3296 20.0418C65.6491 20.9584 66.5544 22.1807 67.0454 23.7084L76.4358 50.7501H66.3089V73.6668H54.3408ZM39.1505 35.1668C37.6161 35.1668 36.3119 34.632 35.2378 33.5626C34.1638 32.4932 33.6268 31.1945 33.6268 29.6668C33.6268 28.139 34.1638 26.8404 35.2378 25.7709C36.3119 24.7015 37.6161 24.1668 39.1505 24.1668C40.6849 24.1668 41.9891 24.7015 43.0632 25.7709C44.1372 26.8404 44.6742 28.139 44.6742 29.6668C44.6742 31.1945 44.1372 32.4932 43.0632 33.5626C41.9891 34.632 40.6849 35.1668 39.1505 35.1668ZM13.8333 14.3584C11.9921 14.3584 10.4117 13.7015 9.09211 12.3876C7.77255 11.0737 7.11276 9.5001 7.11276 7.66676C7.11276 5.83343 7.77255 4.25982 9.09211 2.94593C10.4117 1.63204 11.9921 0.975098 13.8333 0.975098C15.6746 0.975098 17.255 1.63204 18.5745 2.94593C19.8941 4.25982 20.5539 5.83343 20.5539 7.66676C20.5539 9.5001 19.8941 11.0737 18.5745 12.3876C17.255 13.7015 15.6746 14.3584 13.8333 14.3584ZM7.38895 73.6668V47.0834H0.94458V24.1668C0.94458 22.639 1.48161 21.3404 2.55567 20.2709C3.62974 19.2015 4.93395 18.6668 6.46833 18.6668H21.1983C22.7327 18.6668 24.0369 19.2015 25.111 20.2709C26.185 21.3404 26.7221 22.639 26.7221 24.1668V47.0834H20.2777V73.6668H7.38895ZM34.0871 73.6668V58.0834H29.4839V42.8668C29.4839 41.7668 29.8829 40.8195 30.6808 40.0251C31.4786 39.2307 32.4299 38.8334 33.5347 38.8334H44.7663C45.8711 38.8334 46.8224 39.2307 47.6202 40.0251C48.4181 40.8195 48.8171 41.7668 48.8171 42.8668V58.0834H44.2139V73.6668H34.0871Z" fill="url(#paint0_linear_731_899)"/>
<defs>
<linearGradient id="paint0_linear_731_899" x1="0.944742" y1="0.524738" x2="55.427" y2="120.058" gradientUnits="userSpaceOnUse">
<stop stop-color="#6FDEFC"/>
<stop offset="1" stop-color="#458DFC"/>
</linearGradient>
</defs>
</svg>
