<svg width="72" height="54" viewBox="0 0 72 54" fill="none" xmlns="http://www.w3.org/2000/svg">
<path d="M0.252197 52.4998V44.5686C0.252197 42.6561 0.7561 40.8982 1.7639 39.2951C2.77171 37.692 4.28342 36.4686 6.29903 35.6248C10.5674 33.8248 14.48 32.5311 18.037 31.7436C21.594 30.9561 25.1509 30.5623 28.7079 30.5623C30.4271 30.5623 32.25 30.6607 34.1767 30.8576C36.1034 31.0545 38.0745 31.4061 40.0901 31.9123L35.7329 36.0467C34.5472 35.9342 33.3764 35.8357 32.2204 35.7514C31.0644 35.667 29.8935 35.6248 28.7079 35.6248C25.2695 35.6248 22.1423 35.9201 19.3264 36.5107C16.5105 37.1014 12.8794 38.3248 8.4332 40.1811C7.4254 40.6311 6.69919 41.2779 6.25457 42.1217C5.80995 42.9654 5.58764 43.7811 5.58764 44.5686V47.4373H33.9544L39.2898 52.4998H0.252197ZM48.7158 53.8498L36.1775 41.9529L39.9123 38.4092L48.7158 46.7623L67.6566 28.7904L71.3914 32.3342L48.7158 53.8498ZM28.7079 25.3311C24.7952 25.3311 21.594 24.1498 19.1041 21.7873C16.6142 19.4248 15.3693 16.3873 15.3693 12.6748C15.3693 8.96231 16.6142 5.92481 19.1041 3.56231C21.594 1.19981 24.7952 0.0185547 28.7079 0.0185547C32.6205 0.0185547 35.8218 1.19981 38.3117 3.56231C40.8015 5.92481 42.0465 8.96231 42.0465 12.6748C42.0465 16.3873 40.8015 19.4248 38.3117 21.7873C35.8218 24.1498 32.6205 25.3311 28.7079 25.3311ZM28.7079 20.2686C31.0199 20.2686 32.9318 19.5514 34.4435 18.117C35.9552 16.6826 36.711 14.8686 36.711 12.6748C36.711 10.4811 35.9552 8.66699 34.4435 7.23262C32.9318 5.79824 31.0199 5.08105 28.7079 5.08105C26.3958 5.08105 24.484 5.79824 22.9723 7.23262C21.4606 8.66699 20.7047 10.4811 20.7047 12.6748C20.7047 14.8686 21.4606 16.6826 22.9723 18.117C24.484 19.5514 26.3958 20.2686 28.7079 20.2686Z" fill="url(#paint0_linear_731_883)"/>
<defs>
<linearGradient id="paint0_linear_731_883" x1="0.25235" y1="-0.314955" x2="34.1911" y2="94.4378" gradientUnits="userSpaceOnUse">
<stop stop-color="#6FDEFC"/>
<stop offset="1" stop-color="#458DFC"/>
</linearGradient>
</defs>
</svg>
