<svg width="53" height="52" viewBox="0 0 53 52" fill="none" xmlns="http://www.w3.org/2000/svg">
<path d="M26.5002 0.162109C12.3159 0.162109 0.818359 11.7202 0.818359 25.9756C0.818359 40.2326 12.3159 51.7891 26.5002 51.7891C40.6845 51.7891 52.182 40.2326 52.182 25.9756C52.182 11.7202 40.6845 0.162109 26.5002 0.162109ZM43.147 42.7078C40.9839 44.882 38.4665 46.5883 35.6623 47.7794C32.7624 49.013 29.6791 49.6386 26.5003 49.6386C23.3215 49.6386 20.2381 49.0131 17.3367 47.7794C14.534 46.5884 12.0166 44.8821 9.85344 42.7078C7.69025 40.5335 5.99274 38.0033 4.80767 35.1862C3.58026 32.2698 2.95798 29.1708 2.95798 25.9756C2.95798 22.7804 3.58026 19.6813 4.80767 16.7666C5.99264 13.948 7.69025 11.4177 9.85344 9.24352C10.1371 8.95836 10.4272 8.68268 10.7234 8.41325C11.4319 8.87487 12.758 9.79346 14.0716 11.0097C15.7535 12.5679 17.7474 14.9328 17.6909 17.3465C17.6455 19.3049 16.7864 19.7697 15.4855 20.4755C13.954 21.3043 11.8583 22.4402 12.1436 26.4925C12.269 28.2775 13.1954 29.8262 14.8993 31.0978C16.1533 32.0352 17.8399 32.8229 19.9137 33.439C20.2381 33.5351 20.5611 33.6233 20.8809 33.7053C20.8276 33.8676 20.779 34.0204 20.7351 34.1559C20.71 34.2394 20.6802 34.3308 20.6537 34.4128C20.5299 34.4522 20.475 34.4553 20.4608 34.4553C20.4263 34.4491 20.3056 34.3923 20.2163 34.3514C19.8557 34.1844 19.3087 33.9307 18.329 33.8236C18.2318 33.8141 18.1315 33.8079 18.0312 33.8079C16.9449 33.8079 15.7929 34.435 14.6078 35.6686C13.8131 36.4988 13.2723 37.3245 13.2488 37.3591L12.7911 38.0619L16.3383 41.914L18.4105 41.0112C20.2931 43.0153 22.6318 44.0693 25.2213 44.0693C25.2229 44.0693 25.2229 44.0693 25.2229 44.0693C27.5083 44.0693 29.8972 43.2548 32.1293 41.714C34.189 40.2913 35.9728 38.3265 37.1531 36.1823C38.8727 33.0548 39.1533 29.8771 37.9729 27.3073C41.3634 25.6704 43.7115 22.1852 43.7115 18.1582C43.7115 12.5651 39.1846 8.01657 33.6216 8.01657C28.0569 8.01657 23.53 12.5651 23.53 18.1582C23.53 20.9422 24.6539 23.4694 26.4675 25.3032C26.3828 25.3127 26.2997 25.319 26.2167 25.319C26.1649 25.319 26.1147 25.3173 26.0631 25.3142L21.4719 23.5244L19.3964 27.1324L22.7964 30.4078C22.3826 30.8285 22.0502 31.2744 21.7822 31.714C21.3559 31.6115 20.9233 31.4949 20.489 31.3658C17.76 30.5512 14.4667 29.0183 14.277 26.3414C14.0905 23.6741 15.0498 23.1557 16.5013 22.368C17.8745 21.6243 19.757 20.605 19.8307 17.3971C19.9405 12.6769 14.8336 8.61673 12.4541 6.98443C13.9602 5.85449 15.5935 4.91391 17.3366 4.17187C20.238 2.93978 23.3212 2.31431 26.5002 2.31431C29.6791 2.31431 32.7623 2.93978 35.6622 4.17187C38.4664 5.36453 40.9838 7.07085 43.1469 9.24352C45.3085 11.4177 47.0076 13.948 48.1927 16.7666C49.42 19.6813 50.0424 22.7805 50.0424 25.9756C50.0424 29.1707 49.4201 32.2698 48.1927 35.1862C47.0077 38.0032 45.3085 40.5335 43.147 42.7078ZM33.6213 26.1489C29.237 26.1489 25.6709 22.5631 25.6709 18.1578C25.6709 13.7511 29.237 10.1668 33.6213 10.1668C38.004 10.1668 41.57 13.7511 41.57 18.1578C41.5701 22.563 38.004 26.1489 33.6213 26.1489ZM28.4862 26.8847C29.991 27.7827 31.7466 28.2995 33.6214 28.2995C34.4192 28.2995 35.1967 28.2049 35.9413 28.0285C36.9319 29.9963 36.6999 32.5565 35.2797 35.1404C33.1198 39.0682 28.8906 41.9183 25.2211 41.9183C23.0094 41.9183 21.0923 40.9462 19.5264 39.0288L19.0138 38.4018L16.8789 39.3345L15.5293 37.8676C16.2692 36.9412 17.3194 35.9597 18.0311 35.9597C18.0546 35.9597 18.0765 35.9597 18.0985 35.9628C18.7302 36.0305 19.0296 36.1707 19.3196 36.3047C19.608 36.4386 19.9686 36.6056 20.4623 36.6056C20.862 36.6056 21.2822 36.5 21.8245 36.2606C22.3935 36.0116 22.5612 35.4807 22.7744 34.8095C23.0848 33.8294 23.555 32.3485 25.0034 31.3433L26.0834 30.5949L22.091 26.7475L22.4076 26.1945L25.5457 27.4187L25.6742 27.4345C25.8529 27.4581 26.0348 27.4707 26.2166 27.4707C27.0112 27.4708 27.7761 27.2486 28.4862 26.8847Z" fill="white"/>
</svg>
